<svg xmlns="http://www.w3.org/2000/svg" xmlns:xlink="http://www.w3.org/1999/xlink" version="1.1" x="0px" y="0px" viewBox="0 0 100 125" enable-background="new 0 0 100 100" xml:space="preserve"><path d="M49.4,92.4c0.2,0,0.4,0.1,0.6,0.1c0.2,0,0.4,0,0.6-0.1c0.4-0.1,10.2-2.7,19.9-13.1C79.4,69.9,90,52,90,20  c0-1.4-1.1-2.5-2.5-2.5c-12.6,0-25.1-3.3-36.1-9.6l-0.1-0.1c-0.8-0.4-1.7-0.4-2.5,0l-0.1,0.1c-11,6.3-23.5,9.6-36.1,9.6H10  c-1.4,0-2.5,1.1-2.5,2.5c0,32,11.3,50,20.7,59.4C38.6,89.7,49,92.3,49.4,92.4z M50,12.9c10.7,5.9,22.7,9.2,35,9.6  c-0.4,22.7-6.6,41.1-17.8,53.2c-7.5,8-15,11-17.2,11.7C45.1,85.9,13.5,74,12.5,22.5C25.6,22.5,38.5,19.2,50,12.9z"/><path d="M45,68.8c0.6,0,1.3-0.2,1.8-0.7l25-25c1-1,1-2.6,0-3.5L64.3,32c-1-1-2.6-1-3.5,0L45,47.7L39.3,42c-1-1-2.6-1-3.5,0l-7.5,7.5  c-1,1-1,2.6,0,3.5l15,15C43.7,68.5,44.4,68.8,45,68.8z M37.5,47.3l5.7,5.7c1,1,2.6,1,3.5,0l15.7-15.7l4,4L45,62.7L33.5,51.3  L37.5,47.3z"/><text x="0" y="115" fill="#000000" font-size="5px" font-weight="bold" font-family="'Helvetica Neue', Helvetica, Arial-Unicode, Arial, Sans-serif">Created by Arthur Shlain</text><text x="0" y="120" fill="#000000" font-size="5px" font-weight="bold" font-family="'Helvetica Neue', Helvetica, Arial-Unicode, Arial, Sans-serif">from the Noun Project</text></svg>